<?xml version="1.0" encoding="UTF-8" standalone="no"?>
<!DOCTYPE svg PUBLIC "-//W3C//DTD SVG 1.1//EN"
 "http://www.w3.org/Graphics/SVG/1.1/DTD/svg11.dtd">
<!-- Generated by graphviz version 2.46.0 (0)
 -->
<!-- Title: CFG Pages: 1 -->
<svg width="363pt" height="201pt"
 viewBox="0.00 0.00 363.00 201.00" xmlns="http://www.w3.org/2000/svg" xmlns:xlink="http://www.w3.org/1999/xlink">
<g id="graph0" class="graph" transform="scale(1 1) rotate(0) translate(4 197)">
<title>CFG</title>
<polygon fill="white" stroke="transparent" points="-4,4 -4,-197 359,-197 359,4 -4,4"/>
<!-- ⊥ -->
<g id="node1" class="node">
<title>⊥</title>
<polygon fill="none" stroke="black" points="338,-15.5 338,-30.5 352,-30.5 352,-15.5 338,-15.5"/>
<text text-anchor="start" x="341" y="-21.1" font-family="Times,serif" font-size="8.00">⊥</text>
<polygon fill="none" stroke="black" points="335,-13 335,-34 355,-34 355,-13 335,-13"/>
</g>
<!-- 0 -->
<g id="node2" class="node">
<title>0</title>
<polygon fill="none" stroke="black" points="3.5,-83.5 3.5,-98.5 60.5,-98.5 60.5,-83.5 3.5,-83.5"/>
<text text-anchor="start" x="6.5" y="-89.1" font-family="Times,serif" font-size="8.00">0. Load R1 0</text>
<text text-anchor="start" x="10.5" y="-73.1" font-family="Times,serif" font-size="8.00"> Targets: 1</text>
<polygon fill="none" stroke="black" points="0,-65.5 0,-101.5 63,-101.5 63,-65.5 0,-65.5"/>
</g>
<!-- 1 -->
<g id="node3" class="node">
<title>1</title>
<polygon fill="none" stroke="black" points="103.5,-83.5 103.5,-98.5 178.5,-98.5 178.5,-83.5 103.5,-83.5"/>
<text text-anchor="start" x="106.5" y="-89.1" font-family="Times,serif" font-size="8.00">1. CmpLt R1 255</text>
<polygon fill="none" stroke="black" points="103.5,-66.5 103.5,-81.5 178.5,-81.5 178.5,-66.5 103.5,-66.5"/>
<text text-anchor="start" x="106.5" y="-72.1" font-family="Times,serif" font-size="8.00">2. JumpCt 6</text>
<text text-anchor="start" x="112.5" y="-56.1" font-family="Times,serif" font-size="8.00"> Targets: (3,9)</text>
<polygon fill="none" stroke="black" points="100,-49 100,-102 181,-102 181,-49 100,-49"/>
</g>
<!-- 0&#45;&gt;1 -->
<g id="edge1" class="edge">
<title>0:0&#45;&gt;1:1</title>
<path fill="none" stroke="black" d="M61.5,-92.5C75.74,-92.5 81.63,-92.5 92.22,-92.5"/>
<polygon fill="black" stroke="black" points="92.5,-96 102.5,-92.5 92.5,-89 92.5,-96"/>
</g>
<!-- 3 -->
<g id="node4" class="node">
<title>3</title>
<polygon fill="none" stroke="black" points="226.5,-173.5 226.5,-188.5 295.5,-188.5 295.5,-173.5 226.5,-173.5"/>
<text text-anchor="start" x="229.5" y="-179.1" font-family="Times,serif" font-size="8.00">3. LoadMI R2 0</text>
<polygon fill="none" stroke="black" points="226.5,-156.5 226.5,-171.5 295.5,-171.5 295.5,-156.5 226.5,-156.5"/>
<text text-anchor="start" x="229.5" y="-162.1" font-family="Times,serif" font-size="8.00">4. Add R2 253</text>
<polygon fill="none" stroke="black" points="226.5,-139.5 226.5,-154.5 295.5,-154.5 295.5,-139.5 226.5,-139.5"/>
<text text-anchor="start" x="229.5" y="-145.1" font-family="Times,serif" font-size="8.00">5. Store R2 253</text>
<polygon fill="none" stroke="black" points="226.5,-122.5 226.5,-137.5 295.5,-137.5 295.5,-122.5 226.5,-122.5"/>
<text text-anchor="start" x="229.5" y="-128.1" font-family="Times,serif" font-size="8.00">6. SubI R1 1</text>
<polygon fill="none" stroke="black" points="226.5,-105.5 226.5,-120.5 295.5,-120.5 295.5,-105.5 226.5,-105.5"/>
<text text-anchor="start" x="229.5" y="-111.1" font-family="Times,serif" font-size="8.00">7. Store R1 0</text>
<polygon fill="none" stroke="black" points="226.5,-88.5 226.5,-103.5 295.5,-103.5 295.5,-88.5 226.5,-88.5"/>
<text text-anchor="start" x="229.5" y="-94.1" font-family="Times,serif" font-size="8.00">8. Jump &#45;8</text>
<text text-anchor="start" x="239.5" y="-78.1" font-family="Times,serif" font-size="8.00"> Targets: 1</text>
<polygon fill="none" stroke="black" points="223,-71 223,-192 298,-192 298,-71 223,-71"/>
</g>
<!-- 1&#45;&gt;3 -->
<g id="edge2" class="edge">
<title>1:2&#45;&gt;3:3</title>
<path fill="none" stroke="black" d="M179.5,-74.5C190.84,-74.5 196.4,-68.1 205,-75.5 238.55,-104.36 187.44,-169.86 215.39,-180.9"/>
<polygon fill="black" stroke="black" points="215.08,-184.4 225.5,-182.5 216.17,-177.48 215.08,-184.4"/>
<text text-anchor="middle" x="202" y="-78.1" font-family="Times,serif" font-size="8.00">0</text>
<polyline fill="none" stroke="black" points="205,-75.5 199,-75.5 205.77,-76.18 "/>
</g>
<!-- 9 -->
<g id="node5" class="node">
<title>9</title>
<polygon fill="none" stroke="black" points="227.5,-33.5 227.5,-48.5 294.5,-48.5 294.5,-33.5 227.5,-33.5"/>
<text text-anchor="start" x="230.5" y="-39.1" font-family="Times,serif" font-size="8.00">9. Load R0 253</text>
<polygon fill="none" stroke="black" points="227.5,-16.5 227.5,-31.5 294.5,-31.5 294.5,-16.5 227.5,-16.5"/>
<text text-anchor="start" x="230.5" y="-22.1" font-family="Times,serif" font-size="8.00">10. Halt</text>
<text text-anchor="start" x="238" y="-6.1" font-family="Times,serif" font-size="8.00"> Targets: ⊥</text>
<polygon fill="none" stroke="black" points="224,1 224,-52 297,-52 297,1 224,1"/>
</g>
<!-- 1&#45;&gt;9 -->
<g id="edge3" class="edge">
<title>1:2&#45;&gt;9:9</title>
<path fill="none" stroke="black" d="M179.5,-74.5C195.78,-74.5 184.9,-51.63 199,-43.5 206.12,-39.4 210.57,-40.36 216.43,-41.43"/>
<polygon fill="black" stroke="black" points="216.19,-44.92 226.5,-42.5 216.93,-37.96 216.19,-44.92"/>
<text text-anchor="middle" x="202" y="-46.1" font-family="Times,serif" font-size="8.00">1</text>
<polyline fill="none" stroke="black" points="205,-43.5 199,-43.5 199.66,-43.13 "/>
</g>
<!-- 3&#45;&gt;1 -->
<g id="edge4" class="edge">
<title>3:8&#45;&gt;1:1</title>
<path fill="none" stroke="black" d="M225.5,-96.5C208.83,-96.5 202.43,-93.86 189.61,-92.87"/>
<polygon fill="black" stroke="black" points="189.62,-89.37 179.5,-92.5 189.37,-96.36 189.62,-89.37"/>
</g>
<!-- 9&#45;&gt;⊥ -->
<g id="edge5" class="edge">
<title>9:10&#45;&gt;⊥:⊥</title>
<path fill="none" stroke="black" d="M295.5,-24.5C305.09,-24.5 315.75,-24.5 324.63,-24.5"/>
<polygon fill="black" stroke="black" points="324.7,-28 334.7,-24.5 324.7,-21 324.7,-28"/>
</g>
</g>
</svg>
